<?xml version="1.0" encoding="UTF-8" standalone="no"?>
<svg
   height="21.297506"
   viewBox="0 -960 846.15402 851.90025"
   width="21.153851"
   version="1.1"
   id="svg1"
   sodipodi:docname="icon_wifi_error.svg"
   inkscape:version="1.3 (0e150ed6c4, 2023-07-21)"
   xmlns:inkscape="http://www.inkscape.org/namespaces/inkscape"
   xmlns:sodipodi="http://sodipodi.sourceforge.net/DTD/sodipodi-0.dtd"
   xmlns="http://www.w3.org/2000/svg"
   xmlns:svg="http://www.w3.org/2000/svg">
  <defs
     id="defs1" />
  <sodipodi:namedview
     id="namedview1"
     pagecolor="#505050"
     bordercolor="#eeeeee"
     borderopacity="1"
     inkscape:showpageshadow="0"
     inkscape:pageopacity="0"
     inkscape:pagecheckerboard="0"
     inkscape:deskcolor="#505050"
     showguides="false"
     inkscape:zoom="24.434896"
     inkscape:cx="6.0569114"
     inkscape:cy="13.730363"
     inkscape:window-width="1728"
     inkscape:window-height="1083"
     inkscape:window-x="0"
     inkscape:window-y="0"
     inkscape:window-maximized="1"
     inkscape:current-layer="svg1" />
  <path
     d="m 620.15557,-457.60997 -26.97061,-26.97062 173.88812,-173.88812 q -74.65849,-56.70265 -162.54759,-85.99902 -87.88911,-29.29637 -181.44848,-29.29637 -27.40628,0 -54.81256,2.83514 -27.40628,2.83513 -54.81256,7.56035 l -31.84137,-31.84137 q 35.2577,-8.43263 70.51541,-12.39426 35.25771,-3.96162 70.95108,-3.96162 111.07954,0 214.19804,38.49259 103.11943,38.49165 185.6284,112.71447 z m -197.07856,143.13733 89.48812,-89.26982 -320.58827,-320.58827 q -30.02311,12.57571 -58.01059,29.33228 -27.98843,16.75658 -54.885328,36.52974 z M 736.1777,-180.13084 539.53575,-376.99109 423.07701,-260.53236 23.250569,-660.3588 q 32.421629,-28.06025 67.206814,-51.39622 34.785187,-23.33503 72.877077,-41.2181 L 55.309301,-860.99923 82.278971,-887.9689 763.14737,-207.10051 Z M 453.31842,-624.44712 Z m -101.04695,60.41006 z"
     id="path1"
     style="stroke-width:0.945044;fill:#cc0000;fill-opacity:1" />
</svg>
