<?xml version="1.0" encoding="UTF-8" standalone="no"?>
<svg
   height="21.297506"
   viewBox="0 -960 846.15402 851.90025"
   width="21.153851"
   version="1.1"
   id="svg1"
   sodipodi:docname="icon_error.svg"
   inkscape:version="1.3 (0e150ed6c4, 2023-07-21)"
   xmlns:inkscape="http://www.inkscape.org/namespaces/inkscape"
   xmlns:sodipodi="http://sodipodi.sourceforge.net/DTD/sodipodi-0.dtd"
   xmlns="http://www.w3.org/2000/svg"
   xmlns:svg="http://www.w3.org/2000/svg">
  <defs
     id="defs1" />
  <sodipodi:namedview
     id="namedview1"
     pagecolor="#505050"
     bordercolor="#eeeeee"
     borderopacity="1"
     inkscape:showpageshadow="0"
     inkscape:pageopacity="0"
     inkscape:pagecheckerboard="0"
     inkscape:deskcolor="#505050"
     inkscape:zoom="35.541667"
     inkscape:cx="10.550996"
     inkscape:cy="10.649472"
     inkscape:window-width="1728"
     inkscape:window-height="1083"
     inkscape:window-x="0"
     inkscape:window-y="0"
     inkscape:window-maximized="1"
     inkscape:current-layer="svg1" />
  <path
     d="m 423.07703,-357.12687 q 10.462,0 17.539,-7.077 7.076,-7.077 7.076,-17.538 0,-10.462 -7.076,-17.539 -7.077,-7.077 -17.539,-7.077 -10.462,0 -17.539,7.077 -7.076,7.077 -7.076,17.539 0,10.461 7.076,17.538 7.077,7.077 17.539,7.077 z m -20,-118.462 h 40 v -243.076 h -40 z m -113.077,261.539 -186.923,-186.561 v -266.516 l 186.561,-186.923 h 266.516 l 186.923,186.561 v 266.516 l -186.561,186.923 z m 17.077,-40 h 232 l 164,-164 v -232 l -164,-164 h -232 l -164,164 v 232 z m 116,-280 z"
     id="path1"
     style="fill:#cc0000;fill-opacity:1" />
</svg>
