<?xml version="1.0" encoding="UTF-8" standalone="no"?>
<svg
   height="21.297506"
   viewBox="0 -960 846.15402 851.90025"
   width="21.153851"
   version="1.1"
   id="svg1"
   sodipodi:docname="icon_wifi_error.svg"
   inkscape:version="1.3 (0e150ed6c4, 2023-07-21)"
   xmlns:inkscape="http://www.inkscape.org/namespaces/inkscape"
   xmlns:sodipodi="http://sodipodi.sourceforge.net/DTD/sodipodi-0.dtd"
   xmlns="http://www.w3.org/2000/svg"
   xmlns:svg="http://www.w3.org/2000/svg">
  <defs
     id="defs1" />
  <sodipodi:namedview
     id="namedview1"
     pagecolor="#505050"
     bordercolor="#eeeeee"
     borderopacity="1"
     inkscape:showpageshadow="0"
     inkscape:pageopacity="0"
     inkscape:pagecheckerboard="0"
     inkscape:deskcolor="#505050"
     showguides="false"
     inkscape:zoom="24.434896"
     inkscape:cx="6.0978365"
     inkscape:cy="13.730363"
     inkscape:window-width="1712"
     inkscape:window-height="1067"
     inkscape:window-x="26"
     inkscape:window-y="23"
     inkscape:window-maximized="0"
     inkscape:current-layer="svg1" />
  <path
     d="m 631.61603,-439.51087 -28.539,-28.539 184,-184 q -79,-60 -172,-91 -93,-31 -192,-31 -29,0 -58,3 -29,3 -58,8 l -33.693,-33.693 q 37.308,-8.923 74.616,-13.115 37.308,-4.192 75.077,-4.192 117.539,0 226.654,40.731 109.116,40.73 196.423,119.269 z m -208.539,151.461 94.692,-94.461 -339.231,-339.231 q -31.769,13.307 -61.384,31.038 -29.616004,17.731 -58.077004,38.654 z m 331.308,142.154 -208.077,-208.308 -123.231,123.231 L 2.6367188e-5,-654.04987 Q 34.307026,-683.74187 71.115026,-708.43487 q 36.808004,-24.692 77.115004,-43.615 l -114.307004,-114.308 28.538,-28.538 720.462004,720.462 z m -299.308,-470.154 z m -106.923,63.923 z"
     id="path1" />
</svg>
